<?xml version="1.0" encoding="UTF-8"?> <svg xmlns="http://www.w3.org/2000/svg" width="46" height="46" viewBox="0 0 46 46" fill="none"> <path d="M39.2634 6.73657C34.9193 2.39236 29.1435 0 23 0C16.8565 0 11.0807 2.39236 6.73657 6.73657C2.39236 11.0807 0 16.8565 0 23C0 29.1435 2.39236 34.9193 6.73657 39.2634C11.0807 43.6076 16.8565 46 23 46C29.1435 46 34.9193 43.6076 39.2634 39.2634C43.6076 34.9193 46 29.1435 46 23C46 16.8565 43.6076 11.0807 39.2634 6.73657ZM23 44.2031C11.3085 44.2031 1.79688 34.6915 1.79688 23C1.79688 11.3085 11.3085 1.79688 23 1.79688C34.6915 1.79688 44.2031 11.3085 44.2031 23C44.2031 34.6915 34.6915 44.2031 23 44.2031Z" fill="black"></path> <path d="M36.7223 9.27771C33.0569 5.61236 28.1836 3.59375 23 3.59375C17.8164 3.59375 12.9431 5.61236 9.27771 9.27771C5.61236 12.9431 3.59375 17.8164 3.59375 23C3.59375 28.1836 5.61236 33.0569 9.27771 36.7223C12.9431 40.3876 17.8164 42.4062 23 42.4062C28.1836 42.4062 33.0569 40.3876 36.7223 36.7223C40.3876 33.0569 42.4062 28.1836 42.4062 23C42.4062 17.8164 40.3876 12.9431 36.7223 9.27771ZM23.8984 40.5866V36.1172C23.8984 35.621 23.4962 35.2188 23 35.2188C22.5038 35.2188 22.1016 35.621 22.1016 36.1172V40.5866C13.1051 40.1323 5.8677 32.8949 5.41336 23.8984H9.88281C10.379 23.8984 10.7812 23.4962 10.7812 23C10.7812 22.5038 10.379 22.1016 9.88281 22.1016H5.41336C5.8677 13.1051 13.1051 5.8677 22.1016 5.41336V9.88281C22.1016 10.379 22.5038 10.7812 23 10.7812C23.4962 10.7812 23.8984 10.379 23.8984 9.88281V5.41336C32.8949 5.8677 40.1323 13.1051 40.5866 22.1016H36.1172C35.621 22.1016 35.2188 22.5038 35.2188 23C35.2188 23.4962 35.621 23.8984 36.1172 23.8984H40.5866C40.1323 32.8949 32.8949 40.1323 23.8984 40.5866Z" fill="black"></path> <path d="M26.139 18.9773C25.9039 18.9771 25.6689 19.0598 25.5039 19.2257L24.1615 20.5682C23.8095 20.3994 23.4156 20.3047 23 20.3047C22.5844 20.3047 22.1904 20.3994 21.8386 20.5681C21.8386 20.5681 14.8381 13.5677 14.8305 13.5601C14.4838 13.2133 13.9061 13.2141 13.5601 13.5601C13.2097 13.9104 13.2097 14.4801 13.5601 14.8304L20.5682 21.8385C20.3994 22.1904 20.3047 22.5844 20.3047 23C20.3047 24.4862 21.5138 25.6953 23 25.6953C24.4862 25.6953 25.6953 24.4862 25.6953 23C25.6953 22.5845 25.6006 22.1907 25.432 21.8389C25.432 21.8389 26.7705 20.5007 26.7742 20.497C27.1173 20.154 27.1153 19.5668 26.7743 19.2258C26.609 19.0603 26.3739 18.9775 26.139 18.9773ZM23 23.8985C22.5046 23.8985 22.1015 23.4954 22.1015 23C22.1015 22.5046 22.5046 22.1016 23 22.1016C23.4954 22.1016 23.8984 22.5046 23.8984 23C23.8984 23.4954 23.4954 23.8985 23 23.8985Z" fill="black"></path> <path d="M28.6602 18.2383C29.1563 18.2383 29.5586 17.836 29.5586 17.3398C29.5586 16.8437 29.1563 16.4414 28.6602 16.4414C28.164 16.4414 27.7617 16.8437 27.7617 17.3398C27.7617 17.836 28.164 18.2383 28.6602 18.2383Z" fill="black"></path> </svg> 