<?xml version="1.0" encoding="UTF-8"?> <svg xmlns="http://www.w3.org/2000/svg" width="49" height="49" viewBox="0 0 49 49" fill="none"> <g clip-path="url(#clip0)"> <path d="M30.2422 24.8828C29.714 24.8828 29.2852 25.3116 29.2852 25.8398C29.2852 26.3681 29.714 26.7969 30.2422 26.7969C30.7704 26.7969 31.1992 26.3681 31.1992 25.8398C31.1992 25.3116 30.7704 24.8828 30.2422 24.8828Z" fill="black"></path> <path d="M9.77839 35.3896L0.208075 47.4482C-0.0203417 47.7357 -0.0637072 48.1286 0.0959227 48.4591C0.255552 48.7899 0.590513 49 0.957625 49H48.0436C48.4107 49 48.7456 48.7899 48.9053 48.4591C49.0653 48.1286 49.0215 47.7357 48.7931 47.4482L39.2228 35.3896C39.0415 35.1608 38.7652 35.0273 38.4732 35.0273H30.0899L37.2471 23.8017C38.926 21.2846 39.8131 18.3492 39.8131 15.3125C39.8131 6.86932 32.9441 0 24.5006 0C16.057 0 9.18809 6.86932 9.18809 15.3125C9.18809 18.3492 10.0752 21.2842 11.7541 23.8017L18.9113 35.0273H10.5279C10.236 35.0273 9.96007 35.1608 9.77839 35.3896V35.3896ZM6.20522 42.9707H11.9919L8.72603 47.0859H2.93898L6.20522 42.9707ZM20.1319 36.9414L22.7555 41.0566H15.9546L19.2208 36.9414H20.1319ZM28.8697 36.9414H29.7807L33.0466 41.0566H26.2461L28.8697 36.9414ZM34.5659 42.9707L37.8317 47.0859H11.1694L14.4357 42.9707H34.5659ZM40.2755 47.0859L37.0093 42.9707H42.7963L46.0622 47.0859H40.2755ZM41.2771 41.0566H35.4904L32.2241 36.9414H38.0112L41.2771 41.0566ZM13.3519 22.7474C11.8801 20.544 11.1022 17.9731 11.1022 15.3125C11.1022 7.92467 17.1128 1.91406 24.5006 1.91406C31.8884 1.91406 37.899 7.92467 37.899 15.3125C37.899 17.9731 37.1211 20.544 35.6496 22.7474C35.6455 22.753 35.6422 22.7587 35.6384 22.7643C35.01 23.7501 24.9847 39.4745 24.5006 40.2334C23.283 38.3235 14.6028 24.709 13.3628 22.7643C13.3594 22.7587 13.3557 22.753 13.3519 22.7474V22.7474ZM16.7771 36.9414L13.5112 41.0566H7.72413L10.9904 36.9414H16.7771Z" fill="black"></path> <path d="M24.5 24.8828C29.754 24.8828 34.0703 20.6281 34.0703 15.3125C34.0703 10.0354 29.7771 5.74219 24.5 5.74219C19.2229 5.74219 14.9297 10.0354 14.9297 15.3125C14.9297 20.6296 19.2475 24.8828 24.5 24.8828ZM24.5 7.65625C28.7218 7.65625 32.1562 11.0907 32.1562 15.3125C32.1562 19.5735 28.6941 22.9688 24.5 22.9688C20.3048 22.9688 16.8438 19.5735 16.8438 15.3125C16.8438 11.0907 20.2782 7.65625 24.5 7.65625Z" fill="black"></path> <path d="M28.5311 28.1488C28.0788 27.8759 27.4904 28.0217 27.2175 28.4744L23.6802 34.3429C23.4073 34.7957 23.5531 35.3837 24.0058 35.6566C24.4604 35.9306 25.0477 35.7818 25.3195 35.331L28.8567 29.4625C29.1297 29.0097 28.9839 28.4217 28.5311 28.1488V28.1488Z" fill="black"></path> </g> <defs> <clipPath id="clip0"> <rect width="49" height="49" fill="white"></rect> </clipPath> </defs> </svg> 