<?xml version="1.0" encoding="UTF-8"?> <svg xmlns="http://www.w3.org/2000/svg" width="46" height="46" viewBox="0 0 46 46" fill="none"> <g clip-path="url(#clip0)"> <path d="M26.1821 0.0898438C25.6859 0.0898438 25.2837 0.492035 25.2837 0.988281C25.2837 1.48453 25.6859 1.88672 26.1821 1.88672C36.1189 1.88672 44.2031 9.9709 44.2031 19.9078C44.2031 20.4037 44.6053 20.8062 45.1015 20.8062C45.5978 20.8062 46 20.4037 46 19.9078C46 8.98016 37.1097 0.0898438 26.1821 0.0898438V0.0898438Z" fill="#020202"></path> <path d="M26.1821 5.49512C25.6859 5.49512 25.2837 5.89766 25.2837 6.39391C25.2837 6.8898 25.6859 7.29234 26.1821 7.29234C33.1383 7.29234 38.7978 12.9514 38.7978 19.908C38.7978 20.4039 39.2 20.8065 39.6962 20.8065C40.1925 20.8065 40.5947 20.4039 40.5947 19.908C40.5947 11.9607 34.1294 5.49512 26.1821 5.49512V5.49512Z" fill="#020202"></path> <path d="M33.3917 19.9079C33.3917 20.4038 33.7939 20.8063 34.2901 20.8063C34.7864 20.8063 35.1886 20.4038 35.1886 19.9079C35.1886 14.9415 31.1484 10.9014 26.1821 10.9014C25.6859 10.9014 25.2837 11.3036 25.2837 11.7998C25.2837 12.2961 25.6859 12.6982 26.1821 12.6982C30.1573 12.6982 33.3917 15.9323 33.3917 19.9079V19.9079Z" fill="#020202"></path> <path d="M25.2837 17.2051C25.2837 17.701 25.6859 18.1035 26.1821 18.1035C27.177 18.1035 27.9863 18.9128 27.9863 19.9078C27.9863 20.4037 28.3885 20.8062 28.8848 20.8062C29.381 20.8062 29.7832 20.4037 29.7832 19.9078C29.7832 17.9217 28.1678 16.3066 26.1821 16.3066C25.6859 16.3066 25.2837 16.7088 25.2837 17.2051V17.2051Z" fill="#020202"></path> <path d="M17.1588 29.0536C17.1588 29.5498 16.7566 29.952 16.2603 29.952C15.7641 29.952 15.3619 29.5498 15.3619 29.0536C15.3619 28.5573 15.7641 28.1548 16.2603 28.1548C16.7566 28.1548 17.1588 28.5573 17.1588 29.0536V29.0536Z" fill="#020202"></path> <path d="M31.8984 30.0424C30.8476 28.9913 29.1374 28.9913 28.0867 30.0424L25.1299 32.9992C24.5712 33.5579 23.5219 33.6579 22.8386 33.2182C21.805 32.5521 20.7974 31.8211 19.8446 31.0451C19.4596 30.7321 18.8939 30.79 18.5805 31.175C18.2674 31.5599 18.3253 32.1257 18.7103 32.4387C19.7147 33.2565 20.776 34.0268 21.8654 34.7287C23.2558 35.6243 25.2478 35.4225 26.4007 34.2696L29.3575 31.3129C29.7081 30.9626 30.2777 30.963 30.6279 31.3129L37.6161 38.3021C37.9663 38.6523 37.9663 39.2223 37.6161 39.5725L35.0008 42.1878C32.8867 44.302 29.6253 44.8782 26.8854 43.6218C13.1674 37.3342 6.01637 26.7737 2.4335 19.0218C1.19886 16.3518 1.79267 13.1339 3.91171 11.0152L6.48595 8.44134C6.83655 8.09038 7.40439 8.08933 7.75604 8.44134L14.7453 15.4305C15.0955 15.7808 15.0955 16.3504 14.7453 16.7006L11.7885 19.6578C10.6356 20.8106 10.4342 22.8026 11.3298 24.1931C11.8376 24.981 12.383 25.7573 12.9512 26.501C13.2527 26.8951 13.8166 26.9705 14.2108 26.6691C14.6049 26.368 14.6803 25.804 14.3792 25.4099C13.8398 24.7041 13.3221 23.9675 12.8403 23.2196C12.4002 22.5366 12.5006 21.4869 13.0593 20.9282L16.0161 17.9714C17.0693 16.9182 17.0696 15.2133 16.0161 14.1597L9.02684 7.17054C7.97328 6.11698 6.26871 6.11698 5.2148 7.17054L2.64092 9.74442C-0.00841961 12.3938 -0.747174 16.4251 0.801929 19.7757C5.98689 30.9928 14.7031 40.0147 26.1365 45.2555C29.5431 46.8176 33.6191 46.1108 36.2712 43.4586L38.8869 40.8433C39.9376 39.7922 39.9376 38.0824 38.8869 37.0316L31.8984 30.0424Z" fill="#020202"></path> </g> <defs> <clipPath id="clip0"> <rect width="46" height="46" fill="white"></rect> </clipPath> </defs> </svg> 