<?xml version="1.0" encoding="UTF-8"?> <svg xmlns="http://www.w3.org/2000/svg" width="30" height="30" viewBox="0 0 30 30" fill="none"> <path d="M20.4214 1.19995C22.6594 1.19995 24.7633 2.16869 26.3459 3.92766C27.9283 5.68669 28.7999 8.02539 28.7999 10.513V19.826L23.8714 26.3999V13.8C23.8714 10.4344 22.6921 7.27025 20.5512 4.89037" stroke="#17893C" stroke-width="1.5"></path> <path d="M23.8715 13.8V26.3999M12.0429 19.826V10.513C12.0429 8.02539 12.9144 5.68669 14.4969 3.92766C16.0794 2.16869 18.1835 1.19995 20.4215 1.19995C22.6595 1.19995 24.7635 2.16869 26.346 3.92766C27.9285 5.68669 28.8 8.02539 28.8 10.513V19.826H12.0429ZM1.20001 26.3999V13.8C1.20001 10.4344 2.37914 7.27025 4.52014 4.89037C6.66121 2.5106 9.50785 1.19995 12.5357 1.19995C15.5637 1.19995 18.4103 2.5106 20.5513 4.89037C22.6923 7.27025 23.8715 10.4344 23.8715 13.8V26.3999H1.20001ZM23.8715 13.8V26.3999V13.8Z" stroke="#17893C" stroke-width="1.5"></path> <path d="M23.8714 13.8V26.3999M20.4214 1.19995C22.6594 1.19995 24.7633 2.16869 26.3459 3.92766C27.9283 5.68669 28.7999 8.02539 28.7999 10.513L20.4214 1.19995ZM28.7999 10.513V19.826V10.513ZM28.7999 10.513L23.8714 13.8L28.7999 10.513ZM20.5512 4.89037C22.6921 7.27025 23.8714 10.4344 23.8714 13.8L20.5512 4.89037Z" stroke="#17893C" stroke-width="1.5"></path> <path d="M4.52011 4.89047L3.85105 4.28851L3.85103 4.28854L4.52011 4.89047ZM20.4215 2.10005C20.9185 2.10005 21.3215 1.6971 21.3215 1.20005C21.3215 0.702992 20.9185 0.300049 20.4215 0.300049V2.10005ZM13.8277 3.32582C12.0885 5.25916 11.1429 7.81571 11.1429 10.5131H12.9428C12.9428 8.23528 13.7402 6.11442 15.1659 4.52968L13.8277 3.32582ZM11.1429 10.5131V19.8261H12.9428V10.5131H11.1429ZM12.5357 0.300049C9.23657 0.300049 6.15176 1.73131 3.85105 4.28851L5.18918 5.49242C7.17062 3.29008 9.77909 2.10005 12.5357 2.10005V0.300049ZM3.85103 4.28854C1.55323 6.84271 0.299988 10.2247 0.299988 13.8H2.09999C2.09999 10.6443 3.20502 7.69798 5.18921 5.4924L3.85103 4.28854ZM0.299988 13.8V26.4H2.09999V13.8H0.299988ZM1.46108 14.6613L12.3039 11.3744L11.7817 9.65179L0.938891 12.9388L1.46108 14.6613ZM12.5357 2.10005H20.4215V0.300049H12.5357V2.10005Z" fill="#17893C"></path> <path d="M14.4969 3.92766C12.9144 5.68669 12.0429 8.02539 12.0429 10.513V19.826L1.20001 26.3999V13.8C1.20001 10.4344 2.37914 7.27025 4.52014 4.89037C6.66121 2.5106 9.50785 1.19995 12.5357 1.19995" stroke="#17893C" stroke-width="1.5"></path> </svg> 
