<?xml version="1.0" encoding="UTF-8"?> <svg xmlns="http://www.w3.org/2000/svg" width="28" height="28" viewBox="0 0 28 28" fill="none"> <g clip-path="url(#clip0)"> <path d="M17.0077 26.7825V19.4424C17.0077 18.0976 18.0978 17.0076 19.4425 17.0076H26.7826M10.9923 1.21729H6.48084L1.21741 6.48071V10.9922L10.9923 1.21729ZM10.9923 1.21729V8.55744C10.9923 9.90213 9.90225 10.9922 8.55756 10.9922H1.59336H1.21741L10.9923 1.21729ZM10.9923 1.21729H17.0077H10.9923ZM1.21741 10.9922V17.0076V10.9922ZM17.0077 1.21729H21.5192L26.7826 6.48071V10.9922L17.0077 1.21729ZM17.0077 1.21729V8.55744C17.0077 9.90213 18.0978 10.9922 19.4425 10.9922H26.7826L17.0077 1.21729ZM26.7826 10.9922V17.0076V10.9922ZM1.21741 17.0076V21.5191L6.48084 26.7825H10.9923L1.21741 17.0076ZM1.21741 17.0076H8.55756C9.90225 17.0076 10.9923 18.0976 10.9923 19.4424V26.7825L1.21741 17.0076ZM10.9923 26.7825H17.0077H10.9923ZM17.0077 26.7825H21.5192L26.7826 21.5191V17.0076L17.0077 26.7825Z" stroke="#17893C" stroke-width="1.5"></path> <path d="M6.8567 7.98476C7.47961 7.98476 7.98458 7.47979 7.98458 6.85688C7.98458 6.23397 7.47961 5.729 6.8567 5.729C6.23379 5.729 5.72882 6.23397 5.72882 6.85688C5.72882 7.47979 6.23379 7.98476 6.8567 7.98476Z" fill="#17893C"></path> <path d="M21.1432 7.98476C21.7661 7.98476 22.271 7.47979 22.271 6.85688C22.271 6.23397 21.7661 5.729 21.1432 5.729C20.5203 5.729 20.0153 6.23397 20.0153 6.85688C20.0153 7.47979 20.5203 7.98476 21.1432 7.98476Z" fill="#17893C"></path> <path d="M6.8567 22.2711C7.47961 22.2711 7.98458 21.7662 7.98458 21.1433C7.98458 20.5203 7.47961 20.0154 6.8567 20.0154C6.23379 20.0154 5.72882 20.5203 5.72882 21.1433C5.72882 21.7662 6.23379 22.2711 6.8567 22.2711Z" fill="#17893C"></path> <path d="M21.1432 22.2711C21.7661 22.2711 22.271 21.7662 22.271 21.1433C22.271 20.5203 21.7661 20.0154 21.1432 20.0154C20.5203 20.0154 20.0153 20.5203 20.0153 21.1433C20.0153 21.7662 20.5203 22.2711 21.1432 22.2711Z" fill="#17893C"></path> </g> <defs> <clipPath id="clip0"> <rect width="28" height="28" fill="white"></rect> </clipPath> </defs> </svg> 