<?xml version="1.0" encoding="UTF-8"?> <svg xmlns="http://www.w3.org/2000/svg" width="30" height="29" viewBox="0 0 30 29" fill="none"> <g clip-path="url(#clip0)"> <path d="M1.19409 28.9999V15.1041C1.19409 11.3924 2.62252 7.90284 5.21617 5.27821C7.80992 2.65368 11.2584 1.20825 14.9264 1.20825C18.5945 1.20825 22.043 2.65368 24.6368 5.27821C27.2304 7.90284 28.6588 11.3924 28.6588 15.1041V28.9999" stroke="#17893C" stroke-width="1.75"></path> <path d="M4.77649 26.5834V16.3126C4.77649 13.5692 5.83229 10.9899 7.74933 9.04998C9.66645 7.11012 12.2154 6.04175 14.9265 6.04175C17.6376 6.04175 20.1866 7.11012 22.1036 9.04998C24.0207 10.9899 25.0765 13.5692 25.0765 16.3126V26.5834" stroke="#17893C" stroke-width="1.3"></path> <path d="M8.35883 24.1667V17.5208C8.35883 15.7457 9.04199 14.0767 10.2824 12.8215C11.5229 11.5663 13.1722 10.875 14.9265 10.875C16.6808 10.875 18.3301 11.5663 19.5705 12.8215C20.811 14.0767 21.4941 15.7457 21.4941 17.5208V24.1667" stroke="#17893C"></path> </g> <defs> <clipPath id="clip0"> <rect width="29.8529" height="29" fill="white"></rect> </clipPath> </defs> </svg> 