<?xml version="1.0" encoding="UTF-8"?> <svg xmlns="http://www.w3.org/2000/svg" width="43" height="43" viewBox="0 0 43 43" fill="none"> <g clip-path="url(#clip0)"> <path d="M40.8053 29.8126C38.6975 27.7095 35.5086 27.0619 32.7452 28.1365L31.5353 26.9293C31.6313 26.857 31.7238 26.7778 31.8112 26.6906L34.8298 23.6785C35.3247 23.1848 35.5971 22.5264 35.5971 21.8245C35.5971 21.1226 35.3247 20.4642 34.8298 19.9705H34.8299C34.2814 19.4232 33.5486 19.1694 32.829 19.2085C32.8469 19.0767 32.8567 18.9429 32.8567 18.8075C32.8567 18.0293 32.5543 17.2996 32.0051 16.7528C31.4723 16.2213 30.7828 15.9395 30.0836 15.9071C30.417 14.8953 30.1827 13.7317 29.384 12.9327C28.7311 12.2811 27.8426 12.0054 26.9895 12.104C27.0019 11.9938 27.009 11.8824 27.009 11.7698C27.009 10.9915 26.7072 10.2618 26.1592 9.715C25.0248 8.58309 23.179 8.58318 22.0445 9.715L20.1151 11.6401L19.9658 11.4911C19.2438 10.7706 18.0675 10.7716 17.3439 11.4936L16.7036 12.1324L14.8376 10.2689C15.9143 7.51048 15.2647 4.32874 13.1567 2.22542C11.4016 0.474234 8.88771 -0.294703 6.43326 0.168708C6.08196 0.234802 5.01313 0.435938 4.79377 1.25375C4.57928 2.05359 5.342 2.70924 5.70867 3.02434C5.74579 3.05625 8.72118 6.01947 8.72118 6.01947C9.49372 6.79033 9.54562 8.03108 8.84681 8.86284C8.0122 9.56098 6.76684 9.50941 5.9932 8.73745C5.9932 8.73745 3.02343 5.76861 2.99135 5.73149C2.6755 5.36575 2.01792 4.60504 1.21808 4.81979C0.400432 5.03965 0.198875 6.10555 0.132698 6.4555C-0.331805 8.90642 0.438979 11.4155 2.1947 13.1672C4.30248 15.2702 7.49135 15.9179 10.2548 14.8433L12.4152 16.9988C12.1515 17.6801 12.0285 18.4299 12.0736 19.1829C12.1761 20.8728 11.2803 22.5304 9.07801 24.7256L6.78405 27.0144C6.00764 26.6162 5.02942 26.7404 4.37974 27.3885L1.16693 30.5942C0.777594 30.9826 0.563272 31.5005 0.563272 32.0526C0.563272 32.6046 0.777678 33.1225 1.16685 33.5108L10.0389 42.3631C10.4413 42.7645 10.9699 42.9652 11.4985 42.9652C12.027 42.9652 12.5556 42.7645 12.9581 42.363L16.1709 39.1573C16.5602 38.7689 16.7745 38.251 16.7745 37.699C16.7745 37.3652 16.6957 37.0442 16.5477 36.7565L20.4499 32.8629C21.6066 31.7089 21.7945 31.7401 23.0197 31.9446C23.2258 31.9791 23.4596 32.0181 23.7225 32.0556C24.7919 32.2092 26.0337 31.6658 26.7383 31.2895L28.1623 32.7107C27.7864 33.6753 27.6119 34.7243 27.656 35.7712C27.6701 36.1097 27.949 36.3746 28.2847 36.3746C28.2936 36.3746 28.3027 36.3744 28.3117 36.374C28.6592 36.3594 28.9291 36.0659 28.9145 35.7183C28.8726 34.7204 29.0681 33.7214 29.48 32.8294C29.5907 32.5895 29.5401 32.3061 29.3531 32.1195L19.2742 22.0607C19.6841 21.2884 19.9161 20.4668 19.9416 19.6603C20.6671 20.2839 21.6213 20.792 22.5541 21.0428C23.318 21.2481 24.0328 21.2816 24.6747 21.1487C24.6746 21.1558 24.6742 21.1629 24.6742 21.17C24.6747 21.9472 24.9773 22.6762 25.5252 23.2213C26.0406 23.7368 26.718 24.0343 27.4454 24.0677C27.3706 24.3135 27.3318 24.572 27.3318 24.8366C27.3318 25.5385 27.6042 26.1969 28.099 26.6905C28.6107 27.2011 29.2828 27.4564 29.955 27.4563C30.0574 27.4563 30.1597 27.4497 30.2616 27.4378L32.1552 29.3272C32.3415 29.513 32.6236 29.5635 32.8627 29.4538C35.2393 28.3642 38.0737 28.8665 39.9154 30.7041C41.3756 32.161 42.0164 34.2489 41.6295 36.2898C41.5648 36.6317 41.4914 36.8107 41.4441 36.8982C41.3535 36.8388 41.205 36.706 40.9622 36.4247C40.9077 36.3616 37.8966 33.3504 37.8966 33.3504C36.6469 32.1033 34.6248 32.0348 33.2933 33.1947C33.2719 33.2134 33.2518 33.2334 33.233 33.2548C32.0695 34.5844 32.1381 36.6037 33.3891 37.8519L36.9428 41.3886C36.8543 41.4359 36.6746 41.5088 36.3335 41.5731C34.2872 41.959 32.1935 41.3198 30.734 39.8634C30.271 39.3994 29.8863 38.8717 29.5907 38.2949C29.432 37.9853 29.0526 37.8631 28.7428 38.0217C28.4333 38.1805 28.311 38.5601 28.4697 38.8696C28.8251 39.5628 29.2868 40.1965 29.8432 40.7541C31.2619 42.1696 33.176 42.9434 35.154 42.9433C35.6232 42.9433 36.0961 42.8997 36.5667 42.811C36.918 42.7449 37.9868 42.5437 38.2062 41.7259C38.4206 40.9262 37.6579 40.2704 37.2913 39.9553C37.2541 39.9234 34.2788 36.9602 34.2788 36.9602C33.5062 36.1893 33.4543 34.9486 34.1531 34.1168C34.9877 33.4187 36.2331 33.4703 37.0067 34.2422C37.0067 34.2422 39.9765 37.2111 40.0086 37.2482C40.3245 37.614 40.9825 38.375 41.7818 38.1599C42.5993 37.94 42.8009 36.8741 42.8671 36.5242C43.3318 34.0735 42.5609 31.5645 40.8053 29.8126ZM28.4937 13.8241C29.1245 14.455 29.1344 15.4877 28.5167 16.1283L26.4921 18.1484C26.1444 17.6448 24.2318 15.7478 24.2318 15.7478L26.1592 13.8246C26.8031 13.1822 27.8506 13.1824 28.4937 13.8241ZM22.9344 10.607C23.5782 9.96459 24.626 9.96476 25.2694 10.607C25.579 10.9158 25.7494 11.3288 25.7494 11.7699C25.7494 12.2111 25.579 12.6241 25.2694 12.9329L23.34 14.858L21.0069 12.5302L22.9344 10.607ZM10.8447 13.6525C10.6586 13.4667 10.3766 13.4162 10.1374 13.5258C7.76051 14.6154 4.92621 14.1131 3.08457 12.2755C1.62438 10.8187 0.983601 8.73073 1.3705 6.68989C1.43525 6.348 1.50865 6.16895 1.55594 6.08144C1.64647 6.14082 1.79503 6.27368 2.03782 6.55493C2.09233 6.61809 5.10341 9.62925 5.10341 9.62925C6.35331 10.8765 8.37525 10.9449 9.7067 9.78496C9.72812 9.76631 9.74819 9.74616 9.767 9.72483C10.9305 8.39523 10.8619 6.37597 9.61088 5.12775C9.61088 5.12775 6.11724 1.68156 6.05719 1.59111C6.14571 1.54374 6.32543 1.47085 6.66656 1.4066C8.71261 1.02045 10.8064 1.65989 12.2671 3.11731C14.108 4.95416 14.6115 7.78073 13.5199 10.1509C13.4095 10.3906 13.4603 10.6737 13.647 10.8601L15.8121 13.0224L13.4651 15.3641C13.3143 15.5146 13.1757 15.6779 13.0473 15.85L10.8447 13.6525ZM25.5258 19.1125C25.3627 19.2752 25.222 19.4544 25.1038 19.6457C23.7621 20.477 21.6407 19.5613 20.5849 18.5443L20.454 18.4139C19.489 17.4522 18.9757 16.9401 18.9283 16.8916C18.9275 16.8907 18.9266 16.8901 18.9258 16.8892C18.9234 16.8869 18.9213 16.8844 18.9189 16.882C18.9156 16.8786 18.9122 16.8762 18.9088 16.8732C18.668 16.6426 18.2863 16.6385 18.0412 16.8702C17.7884 17.1092 17.7773 17.5078 18.0164 17.7606C18.0186 17.763 18.0224 17.7669 18.029 17.7736C18.4589 18.2026 18.6862 18.8035 18.6862 19.5113C18.6862 20.6247 18.1172 21.8572 17.1641 22.8081C16.9179 23.0538 16.9175 23.4526 17.1631 23.6988C17.2862 23.8221 17.4476 23.8838 17.609 23.8838C17.77 23.8838 17.931 23.8225 18.054 23.6998C18.2365 23.5177 18.4056 23.3273 18.5639 23.1315L25.7998 30.3529C25.0663 30.6972 24.3563 30.874 23.901 30.8085C23.6521 30.773 23.4262 30.7353 23.2269 30.702C21.7674 30.4585 21.1134 30.4213 19.56 31.9711L15.7259 35.7967L12.5578 32.6357C12.3116 32.39 11.9127 32.3904 11.6671 32.6367C11.4214 32.883 11.4219 33.2818 11.6682 33.5274L15.2798 37.131C15.2799 37.1311 15.2801 37.1313 15.2801 37.1314L15.2806 37.1319L15.2812 37.1325C15.4319 37.2829 15.5149 37.4841 15.5149 37.6991C15.5149 37.9141 15.4319 38.1153 15.2812 38.2656L12.0682 41.4714C11.7539 41.7849 11.2427 41.7848 10.9286 41.4714L2.05664 32.6192C1.90597 32.4688 1.823 32.2675 1.823 32.0526C1.823 31.8377 1.90597 31.6364 2.05672 31.4861L5.26953 28.2803C5.58378 27.9669 6.09498 27.967 6.40907 28.2803L9.58602 31.4502C9.83234 31.6959 10.2311 31.6955 10.4768 31.4492C10.7225 31.203 10.722 30.8042 10.4758 30.5585L7.74564 27.8345L9.96755 25.6175C12.4516 23.1413 13.4575 21.1942 13.331 19.1071C13.2673 18.042 13.6596 16.9494 14.3546 16.2558L18.2336 12.3855C18.4626 12.1569 18.8484 12.1559 19.076 12.383L19.6691 12.9748L23.7741 17.0708C23.8849 17.1813 23.9954 17.2907 24.1044 17.3985C24.6261 17.9146 25.3782 18.6586 25.5827 19.0554L25.5258 19.1125ZM27.5832 22.8114C27.1405 22.8114 26.726 22.6407 26.415 22.3296C26.1051 22.0212 25.9342 21.6091 25.9339 21.1693C25.9337 20.7283 26.1047 20.3145 26.4155 20.0043L28.7804 17.6448C29.1022 17.3237 29.525 17.1631 29.9478 17.1631C30.3707 17.1631 30.7935 17.3237 31.1153 17.6448C31.1156 17.645 31.1157 17.6452 31.116 17.6454C31.4261 17.9541 31.597 18.3669 31.597 18.8078C31.597 19.2484 31.4264 19.661 31.1159 19.9703C31.1157 19.9705 31.1154 19.9707 31.1152 19.9709L28.7501 22.3308C28.4403 22.6407 28.0259 22.8114 27.5832 22.8114ZM28.9888 25.7989C28.7326 25.5434 28.5916 25.2017 28.5916 24.8368C28.5916 24.4719 28.7327 24.1301 28.989 23.8744L32.0053 20.8625C32.272 20.5963 32.6224 20.4633 32.9728 20.4633C33.3231 20.4633 33.6735 20.5963 33.9402 20.8625H33.9403C34.1964 21.118 34.3375 21.4598 34.3375 21.8247C34.3375 22.1896 34.1964 22.5313 33.9402 22.7868L30.9216 25.7989C30.3885 26.3305 29.5214 26.3305 28.9888 25.7989Z" fill="#17893C"></path> </g> <defs> <clipPath id="clip0"> <rect width="43" height="43" fill="white"></rect> </clipPath> </defs> </svg> 