<?xml version="1.0" encoding="UTF-8"?> <svg xmlns="http://www.w3.org/2000/svg" width="46" height="46" viewBox="0 0 46 46" fill="none"> <g clip-path="url(#clip0)"> <path d="M40.0309 40.3528L36.251 33.8059C36.003 33.3762 35.4533 33.2287 35.0237 33.477C34.594 33.7252 34.4466 34.2747 34.6949 34.7044L37.3939 39.3792L33.589 38.3698C33.1105 38.2432 32.6201 38.5265 32.4912 39.0041L31.4715 42.779L25.6198 32.6436C26.6971 32.8759 27.8517 32.4732 28.5381 31.5701L29.5874 30.1892C29.7831 29.9318 30.0806 29.7749 30.4035 29.7588L32.1255 29.6733C33.4891 29.6056 34.6017 28.6184 34.8311 27.2724L35.1269 25.5371C35.1809 25.2207 35.3702 24.9449 35.6464 24.781L37.1496 23.8885C38.3161 23.1959 38.8409 21.8102 38.4255 20.5186L37.8829 18.8312C37.7849 18.5268 37.8249 18.196 37.9925 17.9236L38.9198 16.4165C39.6297 15.263 39.4515 13.7935 38.4867 12.843L37.2325 11.6074C37.0044 11.3827 36.8866 11.0705 36.9093 10.7511L37.0349 8.98635C37.1316 7.62908 36.2891 6.40675 34.9863 6.01405L33.3255 5.51335C33.0169 5.42027 32.7664 5.19728 32.6382 4.90142L31.943 3.2978C31.4068 2.06092 30.0575 1.35098 28.7348 1.61116L27.0496 1.94188C26.7316 2.00423 26.4046 1.92337 26.1525 1.71978L24.8109 0.636898C23.7589 -0.212305 22.2318 -0.212395 21.1798 0.636988L19.8385 1.71987C19.5864 1.92346 19.2593 2.00432 18.9413 1.94206L17.256 1.61134C15.9332 1.35152 14.5841 2.06092 14.0479 3.29762L13.3523 4.90187C13.2241 5.19755 12.9736 5.42045 12.665 5.51362L11.0045 6.01432C9.70167 6.40702 8.8593 7.62944 8.95597 8.98662L9.08157 10.7514C9.1043 11.0709 8.98652 11.383 8.75831 11.6077L7.50419 12.8432C6.53926 13.7936 6.3611 15.2632 7.07087 16.4167L7.99824 17.9239C8.16579 18.1961 8.20577 18.5269 8.10785 18.8313L7.56519 20.5188C7.14993 21.8103 7.67453 23.1961 8.84115 23.8887L10.3443 24.7811C10.6205 24.9451 10.8098 25.2208 10.8639 25.5374L11.1597 27.2727C11.2986 28.0881 11.7622 28.7714 12.4088 29.1988L5.96903 40.3528C5.78754 40.6671 5.81306 41.0598 6.03362 41.3482C6.25419 41.6364 6.62677 41.7634 6.97752 41.6705L12.0072 40.3362L13.3577 45.3356C13.4524 45.6861 13.7487 45.9453 14.1087 45.9924C14.1478 45.9975 14.1867 45.9999 14.2253 45.9999C14.5432 45.9999 14.8414 45.831 15.0032 45.5507L20.8846 35.3637C21.1328 34.9339 20.9855 34.3845 20.5558 34.1363C20.1262 33.8882 19.5765 34.0354 19.3284 34.4651L14.5285 42.7789L13.5088 39.004C13.3798 38.5264 12.8892 38.2429 12.411 38.3697L8.60603 39.3791L14.2002 29.6898L15.587 29.7587C15.9098 29.7747 16.2073 29.9316 16.4029 30.1889L17.4527 31.57C18.0111 32.3047 18.8791 32.7081 19.7635 32.7081C20.174 32.7081 20.5883 32.6211 20.9764 32.4399L22.5328 31.713C22.6655 31.651 22.8071 31.6186 22.9495 31.6126L30.9966 45.5505C31.1584 45.8308 31.4566 45.9997 31.7745 45.9997C31.8131 45.9997 31.8521 45.9973 31.8911 45.9922C32.2511 45.9452 32.5475 45.6861 32.6421 45.3354L33.9925 40.336L39.0223 41.6703C39.3734 41.7636 39.7456 41.6363 39.9662 41.348C40.1869 41.0598 40.2124 40.6672 40.0309 40.3528ZM21.7725 30.085L20.2162 30.8119C19.753 31.028 19.1926 30.8897 18.8834 30.483L17.8336 29.1018C17.3162 28.4212 16.5299 28.0065 15.6762 27.9642L13.9545 27.8785C13.4388 27.8529 13.0181 27.4795 12.9313 26.9705L12.6355 25.2352C12.4928 24.3981 11.9921 23.6693 11.2619 23.2357L9.75872 22.3433C9.31759 22.0814 9.11904 21.5573 9.27608 21.0687L9.81874 19.3814C10.0775 18.5765 9.97183 17.702 9.52881 16.982L8.60145 15.4749C8.33299 15.0385 8.40038 14.4828 8.76532 14.1233L10.0195 12.8878C10.6228 12.2936 10.9342 11.4684 10.874 10.6237L10.7484 8.85886C10.7119 8.34549 11.0305 7.88334 11.5233 7.73473L13.1837 7.23403C13.9998 6.98804 14.6622 6.39849 15.0011 5.61667L15.6967 4.01242C15.8714 3.60947 16.2745 3.35458 16.7027 3.35458C16.7714 3.35458 16.8408 3.36114 16.91 3.37471L18.5952 3.70542C19.436 3.87028 20.3005 3.65655 20.9674 3.11811L22.3087 2.03514C22.7066 1.71386 23.2842 1.71394 23.682 2.03505L25.0234 3.1182C25.6902 3.65646 26.5548 3.87046 27.3954 3.70542L29.0805 3.37471C29.5806 3.27705 30.0912 3.54487 30.2939 4.01278L30.989 5.6164C31.3279 6.39849 31.9904 6.98804 32.8065 7.23412L34.4673 7.73482C34.9601 7.88334 35.2787 8.34567 35.2421 8.85904L35.1165 10.6238C35.0564 11.4685 35.3678 12.2938 35.9711 12.8879L37.2253 14.1234C37.5902 14.4829 37.6576 15.0387 37.3892 15.475L36.4618 16.982C36.0188 17.7021 35.913 18.5766 36.1719 19.3814L36.7145 21.0689C36.8716 21.5575 36.6732 22.0815 36.2319 22.3434L34.7287 23.2358C33.9985 23.6694 33.4979 24.3982 33.3552 25.2352L33.0594 26.9705C32.9726 27.4796 32.5518 27.853 32.0362 27.8786L30.3143 27.9641C29.4604 28.0064 28.6739 28.4212 28.1566 29.1019L27.1073 30.4828C26.798 30.8896 26.2374 31.0279 25.7745 30.8118L24.2183 30.085C23.441 29.7222 22.5497 29.7222 21.7725 30.085Z" fill="#17893C"></path> <path d="M22.9954 5.2776C16.8881 5.2776 11.9194 10.2462 11.9194 16.3536C11.9194 22.461 16.8881 27.4296 22.9954 27.4296C29.1027 27.4296 34.0713 22.4609 34.0713 16.3536C34.0713 10.2462 29.1027 5.2776 22.9954 5.2776ZM22.9954 25.6326C17.879 25.6326 13.7165 21.47 13.7165 16.3536C13.7165 11.2372 17.8789 7.07465 22.9954 7.07465C28.1118 7.07465 32.2743 11.2371 32.2743 16.3536C32.2743 21.47 28.1118 25.6326 22.9954 25.6326Z" fill="#17893C"></path> <path d="M25.4369 11.5732C25.0049 11.3293 24.4567 11.4818 24.2128 11.9139L19.1459 20.8893C18.902 21.3215 19.0544 21.8695 19.4866 22.1134C19.6262 22.1922 19.7778 22.2297 19.9274 22.2297C20.241 22.2297 20.5456 22.0653 20.7107 21.7727L25.7776 12.7973C26.0216 12.3653 25.869 11.8172 25.4369 11.5732Z" fill="#17893C"></path> <path d="M26.2979 17.2019C24.7632 17.2019 23.5146 18.4505 23.5146 19.9852C23.5146 21.5199 24.7632 22.7685 26.2979 22.7685C27.8326 22.7685 29.0812 21.5199 29.0812 19.9852C29.0812 18.4505 27.8325 17.2019 26.2979 17.2019ZM26.2978 20.9714C25.754 20.9714 25.3116 20.529 25.3116 19.9852C25.3116 19.4414 25.7542 18.999 26.2978 18.999C26.8416 18.999 27.284 19.4414 27.284 19.9852C27.284 20.5289 26.8415 20.9714 26.2978 20.9714Z" fill="#17893C"></path> <path d="M19.7123 9.93878C18.1776 9.93878 16.9291 11.1873 16.9291 12.7221C16.9291 14.2568 18.1776 15.5053 19.7123 15.5053C21.2471 15.5053 22.4956 14.2568 22.4956 12.7221C22.4956 11.1873 21.247 9.93878 19.7123 9.93878ZM19.7123 13.7083C19.1685 13.7082 18.7261 13.2658 18.7261 12.7221C18.7261 12.1782 19.1685 11.7358 19.7123 11.7358C20.2562 11.7358 20.6986 12.1782 20.6986 12.7221C20.6986 13.2659 20.2561 13.7083 19.7123 13.7083Z" fill="#17893C"></path> </g> <defs> <clipPath id="clip0"> <rect width="46" height="46" fill="white"></rect> </clipPath> </defs> </svg> 