<?xml version="1.0" encoding="UTF-8"?> <svg xmlns="http://www.w3.org/2000/svg" width="39" height="39" viewBox="0 0 39 39" fill="none"> <g clip-path="url(#clip0)"> <path d="M37.9938 10.0923L30.339 0.38399C30.147 0.141909 29.8632 0 29.5544 0H9.45333C9.14447 0 8.86065 0.141909 8.66865 0.38399L1.0139 10.0923C0.871988 10.2676 0.79686 10.4846 0.79686 10.71V37.9983C0.79686 38.5492 1.24763 39 1.79857 39H37.2008C37.7517 39 38.2025 38.5492 38.2025 37.9983V10.71C38.2108 10.4846 38.1357 10.2676 37.9938 10.0923ZM35.2725 9.87521H20.5056V2.00342H29.0702L35.2725 9.87521ZM9.93749 2.00342H18.5021V9.87521H3.73522L9.93749 2.00342ZM2.80029 36.9966V11.8786H36.1991V36.9966H2.80029Z" fill="#17893C"></path> <path d="M24.2536 19.9424L17.5421 26.6539L14.7541 23.8658C14.3617 23.4734 13.7273 23.4734 13.335 23.8658C12.9426 24.2581 12.9426 24.8925 13.335 25.2849L16.8326 28.7825C17.0246 28.9745 17.2834 29.0747 17.5421 29.0747C17.8009 29.0747 18.0513 28.9745 18.2517 28.7825L25.6644 21.3698C26.0567 20.9775 26.0567 20.3431 25.6644 19.9507C25.2804 19.5501 24.6459 19.5501 24.2536 19.9424Z" fill="#17893C"></path> </g> <defs> <clipPath id="clip0"> <rect width="39" height="39" fill="white"></rect> </clipPath> </defs> </svg> 