<?xml version="1.0" encoding="UTF-8"?> <svg xmlns="http://www.w3.org/2000/svg" width="42" height="42" viewBox="0 0 42 42" fill="none"> <path d="M40.1544 17.9232H39.5395V16.0772V9.51467C39.5395 7.36611 37.7915 5.61811 35.643 5.61811H18.7463L7.34703 2.36115C7.34375 2.36025 7.34039 2.35976 7.33711 2.35885C7.33374 2.35795 7.33054 2.35664 7.32718 2.35582C7.32029 2.3541 7.31348 2.35328 7.30667 2.3518C7.29609 2.34958 7.28551 2.34729 7.27493 2.34556C7.26533 2.34401 7.2559 2.34302 7.2463 2.34187C7.23514 2.34056 7.22407 2.33941 7.21299 2.33876C7.20397 2.33826 7.19503 2.33818 7.18601 2.33802C7.17452 2.33785 7.16312 2.33777 7.15172 2.33826C7.14327 2.33859 7.13482 2.33941 7.12645 2.34007C7.11472 2.34105 7.10299 2.34212 7.09142 2.34384C7.08355 2.34499 7.07576 2.34647 7.06796 2.34786C7.05599 2.34999 7.04417 2.35229 7.03244 2.35516C7.02514 2.35697 7.01801 2.35902 7.01079 2.36107C6.99881 2.36451 6.987 2.36804 6.97519 2.37214C6.96854 2.37452 6.96198 2.37706 6.95533 2.37969C6.94344 2.38428 6.93163 2.38912 6.92006 2.39446C6.91391 2.39733 6.90792 2.40044 6.90185 2.40348C6.89028 2.4093 6.87888 2.41521 6.86773 2.42185C6.8619 2.42522 6.85632 2.42883 6.85058 2.43244C6.83959 2.43933 6.82876 2.44638 6.81826 2.45401C6.81276 2.45795 6.80743 2.46221 6.80202 2.4664C6.79193 2.47419 6.78192 2.48215 6.77232 2.4906C6.76691 2.49535 6.76174 2.50036 6.75649 2.50528C6.74747 2.51381 6.73853 2.52234 6.72999 2.53136C6.72466 2.53703 6.71966 2.54293 6.71449 2.54884C6.7067 2.55778 6.69899 2.5668 6.69169 2.57624C6.68644 2.58304 6.68151 2.59002 6.67651 2.59699C6.67003 2.6061 6.66363 2.61528 6.65773 2.62472C6.65264 2.63276 6.64796 2.64112 6.64329 2.64941C6.63812 2.65851 6.63295 2.6677 6.62828 2.67713C6.62368 2.68632 6.61958 2.69576 6.6154 2.70519C6.6113 2.71446 6.60728 2.72373 6.60367 2.73324C6.59989 2.74325 6.59661 2.75351 6.59325 2.76384C6.59112 2.77049 6.58849 2.77672 6.58652 2.78345C6.58554 2.78681 6.58513 2.79009 6.58423 2.79337C6.58332 2.79674 6.58201 2.79993 6.58119 2.8033L5.87769 5.61795H3.89689C1.75268 5.61795 0.00771092 7.3589 0.000656249 9.50155C0.000574218 9.50598 0 9.51016 0 9.51451V30.8426C0 31.1822 0.276445 31.4578 0.615233 31.4578C0.954842 31.4578 1.23047 31.1822 1.23047 30.8426V12.3522C1.92806 13.0081 2.866 13.4112 3.89689 13.4112H35.643C35.6437 13.4112 35.6444 13.4112 35.6451 13.4112C37.1141 13.4123 38.309 14.6078 38.309 16.0772V20.3842H31.5405C31.5401 20.3842 31.5397 20.3843 31.5393 20.3843C31.5215 20.3843 31.5038 20.3854 31.4862 20.3869C31.4666 20.3886 31.4472 20.3914 31.4282 20.3949C31.4253 20.3954 31.4225 20.3957 31.4196 20.3963C31.4036 20.3995 31.3878 20.4037 31.3721 20.4082C31.3687 20.4091 31.3652 20.4098 31.3618 20.4109C31.3479 20.4151 31.3343 20.4202 31.3208 20.4254C31.3156 20.4274 31.3104 20.429 31.3052 20.4311C31.2939 20.4358 31.283 20.4413 31.2721 20.4466C31.2648 20.4501 31.2575 20.4533 31.2505 20.457C31.242 20.4615 31.2339 20.4666 31.2257 20.4716C31.2166 20.477 31.2073 20.4822 31.1985 20.4881C31.1925 20.4921 31.187 20.4966 31.1812 20.5008C31.1707 20.5083 31.1602 20.5158 31.1502 20.5241C31.1458 20.5277 31.1418 20.5317 31.1376 20.5354C31.1269 20.5447 31.1161 20.554 31.1059 20.5642C31.1 20.5702 31.0945 20.5767 31.0889 20.583C31.0809 20.5916 31.0727 20.6 31.0652 20.6092C31.0525 20.6247 31.0406 20.6408 31.0294 20.6574C31.0292 20.6577 31.0289 20.658 31.0288 20.6584L27.7477 25.5803C27.7248 25.6146 27.7054 25.6509 27.6901 25.6887C27.6843 25.7029 27.6796 25.7172 27.6749 25.7315C27.6735 25.7358 27.6717 25.74 27.6704 25.7444C27.6658 25.7595 27.6623 25.7749 27.6589 25.7901C27.658 25.7942 27.6569 25.7981 27.656 25.8021C27.6533 25.8159 27.6515 25.8298 27.6498 25.8436C27.6491 25.8495 27.6479 25.8554 27.6473 25.8614C27.6462 25.8728 27.646 25.8841 27.6455 25.8955C27.6451 25.9042 27.6444 25.9129 27.6444 25.9217C27.6444 25.9302 27.6451 25.9386 27.6455 25.9471C27.6459 25.9587 27.6462 25.9704 27.6473 25.9821C27.6479 25.9877 27.649 25.9934 27.6497 25.9991C27.6515 26.0132 27.6533 26.0273 27.6561 26.0413C27.6569 26.0452 27.658 26.0489 27.6589 26.0528C27.6623 26.0682 27.6659 26.0836 27.6705 26.099C27.6718 26.1033 27.6736 26.1075 27.675 26.1119C27.6797 26.1262 27.6843 26.1406 27.6902 26.1547C27.7056 26.1924 27.7249 26.2288 27.7479 26.2632L31.0289 31.1844C31.0291 31.1847 31.0292 31.1848 31.0294 31.1851C31.0426 31.2047 31.0571 31.2234 31.0723 31.2413C31.0773 31.2473 31.0826 31.2527 31.0878 31.2583C31.0982 31.2697 31.1091 31.2807 31.1203 31.2913C31.1269 31.2975 31.1335 31.3036 31.1402 31.3094C31.1522 31.3197 31.1646 31.3293 31.1773 31.3386C31.1831 31.3428 31.1885 31.3474 31.1944 31.3514C31.2128 31.3639 31.2319 31.3755 31.2517 31.386C31.2567 31.3886 31.2619 31.3908 31.2669 31.3933C31.2826 31.4011 31.2987 31.4084 31.3152 31.4149C31.3216 31.4175 31.328 31.4198 31.3345 31.4221C31.3502 31.4276 31.3661 31.4326 31.3823 31.4369C31.389 31.4386 31.3955 31.4404 31.4022 31.4421C31.4189 31.4459 31.4358 31.4489 31.4529 31.4513C31.4592 31.4523 31.4653 31.4535 31.4716 31.4542C31.4927 31.4566 31.5142 31.4579 31.536 31.4581C31.5378 31.4581 31.5395 31.4584 31.5413 31.4584C31.5416 31.4584 31.542 31.4583 31.5424 31.4583H38.3093V35.7656C38.3093 37.2358 37.1132 38.4318 35.6432 38.4318H3.89722C2.42722 38.4318 1.2312 37.2358 1.2312 35.7656C1.2312 35.7624 1.23079 35.7593 1.23071 35.7561V33.3039C1.23071 32.9651 0.955088 32.6886 0.615479 32.6886C0.276691 32.6886 0.000246093 32.9651 0.000246093 33.3039V35.7656C0.000246093 35.772 0.000984373 35.7782 0.00123047 35.7846C0.0114844 37.9244 1.75506 39.6623 3.89722 39.6623H35.6432C37.7916 39.6623 39.5394 37.9146 39.5397 35.7663C39.5397 35.7662 39.5397 35.7661 39.5397 35.7659V31.4583H40.1546C41.1721 31.4583 42 30.6305 42 29.6129V19.7686C41.9998 18.751 41.1719 17.9232 40.1544 17.9232ZM7.62069 3.71901L18.4766 6.82085C18.4771 6.82102 18.4777 6.8211 18.4782 6.82126L25.754 8.9001H6.32575L7.62069 3.71901ZM38.3089 13.2394C37.6114 12.5836 36.6736 12.1806 35.643 12.1806C35.6419 12.1806 35.641 12.1808 35.6398 12.1808H3.89689C2.42681 12.1808 1.23079 10.9848 1.23079 9.51467C1.23079 8.04459 2.42681 6.84858 3.89689 6.84858H5.57016L5.05746 8.9001H3.89705C3.55728 8.9001 3.28182 9.17556 3.28182 9.51533C3.28182 9.8551 3.55728 10.1306 3.89705 10.1306H5.5357C5.53652 10.1306 5.53743 10.1307 5.53833 10.1307C5.53899 10.1307 5.53964 10.1306 5.54022 10.1306H30.1447C30.1455 10.1306 30.1463 10.1307 30.147 10.1307C30.1477 10.1307 30.1483 10.1306 30.149 10.1306H34.822C35.1617 10.1306 35.4372 9.8551 35.4372 9.51533C35.4372 9.17556 35.1617 8.9001 34.822 8.9001H30.2329L23.0528 6.84858H35.6429C37.1129 6.84858 38.3089 8.04459 38.3089 9.51467V13.2394ZM40.7693 29.6126C40.7693 29.9517 40.4934 30.2275 40.1544 30.2275H31.8697L28.9987 25.9214L31.8697 21.6146H40.1544C40.163 21.6146 40.1714 21.6136 40.1799 21.6133C40.3863 21.6104 40.5845 21.5737 40.7693 21.5082V29.6126V29.6126ZM40.1544 20.3835C40.1501 20.3835 40.1459 20.384 40.1417 20.3841H39.5395V19.1537H40.1544C40.4934 19.1537 40.7693 19.4295 40.7693 19.7686C40.7693 20.1076 40.4934 20.3835 40.1544 20.3835Z" fill="#17893C"></path> <path d="M34.0018 23.6654C32.7579 23.6654 31.746 24.6774 31.746 25.9213C31.746 27.1653 32.7579 28.1772 34.0018 28.1772C35.2457 28.1772 36.2577 27.1653 36.2577 25.9213C36.2577 24.6774 35.2457 23.6654 34.0018 23.6654ZM34.0018 26.9467C33.4364 26.9467 32.9764 26.4868 32.9764 25.9213C32.9764 25.3559 33.4364 24.8959 34.0018 24.8959C34.5673 24.8959 35.0272 25.3559 35.0272 25.9213C35.0272 26.4868 34.5673 26.9467 34.0018 26.9467Z" fill="#17893C"></path> </svg> 