<?xml version="1.0" encoding="UTF-8"?> <svg xmlns="http://www.w3.org/2000/svg" width="28" height="28" viewBox="0 0 28 28" fill="none"> <g clip-path="url(#clip0)"> <path d="M5.73551 0.543999L7.80509 3.64808L9.64437 6.40752C9.99868 6.94007 9.88253 7.65575 9.37788 8.04889L7.1828 9.75638C6.70648 10.1232 6.5696 10.783 6.86081 11.3089C7.50529 12.4675 8.1121 13.8376 11.139 16.8606C14.1658 19.8836 15.532 20.4943 16.6906 21.1387C17.2166 21.43 17.8764 21.2931 18.2431 20.8167L19.9506 18.6217C20.3437 18.1171 21.0594 18.0009 21.592 18.3552L24.2664 20.138L27.4556 22.264C27.9984 22.6259 28.1613 23.3503 27.8258 23.9097L26.3549 26.3617C25.9645 27.0243 25.334 27.5114 24.5943 27.7221C22.1496 28.3926 16.7568 28.5278 8.11407 19.885C-0.528644 11.2423 -0.393022 5.84999 0.277548 3.40532C0.488147 2.66558 0.975244 2.03515 1.63794 1.64474L4.08982 0.173768C4.64932 -0.161791 5.37365 0.00117683 5.73551 0.543999Z" fill="white"></path> <path d="M23.6553 12.0692C23.6503 7.53885 19.9789 3.86745 15.4485 3.86242C15.1819 3.86242 14.9657 3.6463 14.9657 3.37964C14.9657 3.11304 15.1818 2.89687 15.4485 2.89687C20.5119 2.90244 24.6152 7.00576 24.6208 12.0692C24.6208 12.3358 24.4047 12.5519 24.138 12.5519C23.8715 12.552 23.6553 12.3359 23.6553 12.0692Z" fill="white"></path> <path d="M20.7588 12.0692C20.7554 9.13785 18.3799 6.76241 15.4486 6.75897C15.182 6.75897 14.9658 6.54285 14.9658 6.27619C14.9658 6.00959 15.1819 5.79342 15.4486 5.79342C18.9129 5.79741 21.7204 8.60481 21.7244 12.0692C21.7244 12.3358 21.5083 12.552 21.2416 12.552C20.975 12.552 20.7588 12.3359 20.7588 12.0692Z" fill="white"></path> <path d="M17.8623 12.0692C17.8607 10.7368 16.7809 9.65704 15.4485 9.65545C15.1819 9.65545 14.9657 9.43933 14.9657 9.17268C14.9657 8.90608 15.1818 8.6899 15.4485 8.6899C17.3139 8.69203 18.8256 10.2037 18.8278 12.0692C18.8278 12.3358 18.6116 12.5519 18.345 12.5519C18.0784 12.552 17.8623 12.3359 17.8623 12.0692Z" fill="white"></path> </g> <defs> <clipPath id="clip0"> <rect width="28" height="28" transform="matrix(-4.37114e-08 -1 -1 4.37114e-08 28 28)" fill="white"></rect> </clipPath> </defs> </svg> 